<?xml version="1.0" standalone="no"?><!DOCTYPE svg PUBLIC "-//W3C//DTD SVG 1.1//EN" "http://www.w3.org/Graphics/SVG/1.1/DTD/svg11.dtd"><svg t="1734748080175" class="icon" viewBox="0 0 1024 1024" version="1.1" xmlns="http://www.w3.org/2000/svg" p-id="5366" xmlns:xlink="http://www.w3.org/1999/xlink" width="128" height="128"><path d="M963.53 435.05c-0.33-56.88 5.6-125.2-49.98-125.29-38.81-0.08-133.91-2.15-138.69-5.64-58.22-42.48 11.07-54.3-6.68-93.21-18.17-40.1-51.14-60.78-90.94-72.14h-40.45c-32.23 2.54-58.05 18.14-78.77 43.32-22.28-24.24-47.11-40.69-78.93-43.32h-40.45c-3.78 1.36-7.4 2.97-11.27 3.99-66.27 18.14-105.32 50.05-89.62 118.89 3.78 16.61 12.58 31.02 19.9 45.78-2.14 1.44-2.71 0-3.21 0-40.37 0.17-80.74 2.03-121.19 2.46-46.37 0.42-80.25 69.64-81.4 117.45-0.82 33.99-0.66 68.07 0.08 101.98 0.74 33.15 15.54 58.75 44.65 73.24 10.52 5.26 12.58 11.45 12.5 22.21-0.33 84.68-0.25 169.37-0.16 254.06 0 59.34 30.91 91.3 88.3 91.39 96.11 0.08 192.32 0 288.43 0 77.45 0 154.82 0.08 232.27 0 56.57-0.09 87.48-31.79 87.56-89.77 0.09-84.69 0-169.38 0.09-254.06 0-8.56-1.89-16.78 9.53-22.04 34.62-16.02 48.35-46.03 48.35-83.84 0.08-28.57 0.24-56.97 0.08-85.46z" fill="#FFC600" p-id="5367"></path><path d="M1021.31 470.56c0.02-7.08 0.05-14.14 0.07-21.19v-0.21c0.09-26.95 0.19-54.82 0.03-82.25-0.2-34.13-10.46-62.19-29.67-81.14-19.2-18.94-47.52-28.97-81.92-29.02-32.43-0.07-65.29-0.04-97.08-0.02-14.99 0.01-30 0.02-45.02 0.02h-2.84l0.36-2.82c0.66-5.15 3.14-8.77 5.54-12.28 1.19-1.74 2.41-3.53 3.35-5.43 23.77-47.54 24.74-95.17 2.9-141.6-10.97-23.48-26.36-42.2-47.06-57.24-18.25-13.26-40.28-23.35-67.34-30.84l-0.14-0.04-50.91 0.01C574.33 9.36 541.8 26.17 515 56.47l-1.78 2.02-1.88-1.93c-30.51-31.28-61.21-47.19-96.59-50.05l-50.97-0.01-0.17 0.06c-1.49 0.52-2.96 1.07-4.43 1.62-3.25 1.22-6.31 2.36-9.61 3.2-40.33 10.71-74.11 35.9-95.1 70.93-20.99 35.03-27.28 76.71-17.72 117.37 3.76 16.02 11.5 30.47 18.99 44.44 1.5 2.79 3.03 5.66 4.52 8.51l1.03 1.97-2.56 1.75h-0.77c-18.19 0.07-36.51 0.09-54.23 0.11-31.64 0.04-64.35 0.07-96.62 0.4-28.37 0.25-54.24 10.4-72.85 28.57-18.65 18.21-29.31 43.82-30.01 72.11-0.95 37.98-0.92 78.46 0.1 123.74 0.95 41.36 20.46 72.4 56.43 89.77 12.82 6.21 15.12 13.62 15.02 25.98-0.41 103.52-0.31 207.27-0.21 307.61v0.52c0 36.11 9.63 64.08 28.61 83.13 18.98 19.05 46.87 28.73 82.88 28.79 79.06 0.07 159.52 0.05 237.32 0.02h3.15c38.2-0.01 76.4-0.02 114.59-0.02 34.16 0 68.31 0 102.45 0.02h6.03c61.57 0.02 125.07 0.04 187.59-0.02 71.2-0.11 110.47-39.16 110.57-109.95 0.05-51.36 0.05-103.57 0.05-154.07s0-102.71 0.05-154.07c0-1.31-0.04-2.62-0.08-3.91-0.25-8.88-0.48-16.55 11.37-21.84 40.59-18.22 61.14-52.76 61.14-102.68zM295.62 146.37l0.01-0.08c8.57-46.1 48.79-78.7 95.66-77.49 46.24 1.13 84.33 36.07 88.61 81.27 1.76 18.87 1.75 38.21 1.74 56.91-0.01 11.83-0.02 24.04 0.42 36.07 0.16 4.69-0.65 7.85-2.47 9.67-1.99 1.99-5.27 2.53-9.58 2.53-0.69 0-1.41-0.01-2.15-0.04-5.19-0.18-10.8-0.26-17.64-0.26-4.53 0-9.13 0.04-13.83 0.07h-0.35c-5.24 0.04-10.68 0.08-16.42 0.08l-0.17-0.01c-5.85-0.4-11.88-0.3-18.27-0.19-14.92 0.24-30.28 0.5-45.45-5.39-42.19-16.3-68.02-60.65-60.11-103.14zM78.35 510c-7.69-7.58-11.27-19.92-11.27-38.83l-0.05-15.46c-0.1-31.38-0.21-63.73 0.15-95.46 0.31-26.57 15.13-41.92 40.67-42.12 74.95-0.38 151.19-0.37 224.92-0.35h3.03c43.52 0.01 88.52 0.02 132.73-0.06 10.24 0 13.52 3.31 13.52 13.61-0.29 56.31-0.53 116.32 0.11 176.57 0.07 5.16-0.9 8.66-2.95 10.72-2.5 2.51-6.48 2.81-11.15 2.81-0.72 0-1.46-0.01-2.21-0.01-0.74-0.01-1.5-0.01-2.25-0.01-58.82-0.11-118.67-0.11-176.54-0.11-18.78 0-37.56 0.01-56.34 0.02h-0.26c-36.85 0.02-74.96 0.04-112.42-0.02-19.36-0.11-31.97-3.7-39.69-11.3z m403.91 95.12c-0.81 39.4-0.67 79.45-0.52 118.18v0.45c0.05 14.91 0.11 30.32 0.11 45.48 0 15.2-0.04 30.4-0.08 45.61v0.58c-0.1 39.48-0.21 80.3 0.39 120.51 0.16 8.66-0.94 13.39-3.82 16.3-2.78 2.82-7.58 4.08-15.51 4.08h-0.45c-46.79-0.47-94.2-0.53-130.29-0.53-15.3 0-30.52 0.01-45.62 0.03h-5.24c-29.76 0.03-63.48 0.06-96.67-0.01-33.53-0.11-46.63-13.04-46.74-46.12-0.08-37.96-0.05-76.4-0.03-113.58 0.04-63.73 0.08-129.63-0.38-194.46-0.05-8.51 1.05-13.11 3.82-15.87 2.72-2.73 7.43-3.88 15.76-3.82 109.55 0.89 208.67 0.86 303.02-0.1 9.38-0.09 14.74 1.24 17.96 4.48 3.26 3.28 4.46 8.55 4.29 18.79z m60.86-407.73l0.03-6.18c0.05-14.49 0.1-29.48 2.43-43.84 8.23-51.03 51.97-83.81 104-77.96 45.75 5.07 83.12 48.4 81.6 94.62-1.63 49.72-40.74 88.74-90.98 90.77-5.18 0.2-10.4 0.26-15.58 0.26-4.11 0-8.2-0.04-12.23-0.08h-0.2c-4.08-0.04-8.17-0.08-12.27-0.08-27.77 0.05-43.05 0.07-50-6.9-7.03-7.05-6.95-22.52-6.8-50.61z m344.72 593.19v0.26c0.02 39.83 0.04 81.02-0.08 121.5-0.1 29.47-14.2 43.25-44.37 43.34-37.43 0.12-76.5 0.1-110.96 0.08h-0.28c-56.3-0.03-114.52-0.06-171.8 0.44h-0.51c-6.74 0-11.06-1.18-13.57-3.69-3.05-3.06-3.62-8.21-3.56-16.09 0.46-41.8 0.41-84.25 0.35-125.3-0.02-13.83-0.04-27.66-0.04-41.49 0-14.8 0.05-29.84 0.09-44.39v-0.64c0.12-39.07 0.24-79.47-0.51-119.18-0.16-9.13 0.48-15.53 4.17-19.24 3.11-3.13 8.67-4.57 17.58-4.44 104.31 1.17 207.38 0.79 303.21 0.2 9.15-0.06 13.84 1.05 16.71 3.92 2.82 2.82 4.06 7.62 4.01 15.56-0.5 63.11-0.47 127.19-0.44 189.16z m71.58-316.13c-0.31 31.95-14.92 46.34-47.36 46.64-40.67 0.36-82.06 0.27-122.09 0.18h-0.26c-15.94-0.03-31.86-0.05-47.79-0.07-18.27-0.02-36.54-0.04-54.81-0.09-41.05-0.1-83.49-0.21-125.56 0.39-0.39 0.01-0.78 0.01-1.15 0.01-7.33 0-11.58-1.11-14.12-3.67-2.63-2.64-3.74-7.24-3.59-14.89 0.86-51.15 0.89-105.61 0.11-166.49-0.11-8.27 0.92-12.74 3.59-15.42 2.57-2.59 6.96-3.75 14.21-3.75h0.45c70.77 0.43 142.58 0.42 212.05 0.41h0.75c45.97-0.01 93.5-0.02 140.27 0.11 30.15 0.1 45 14.99 45.4 45.5 0.29 33.51 0.26 68.82-0.1 111.14z" p-id="5368"></path></svg>